<svg width="133" height="133" viewBox="0 0 133 133" fill="none" xmlns="http://www.w3.org/2000/svg">
<path d="M3.91724 74.532L20.8955 57.8031L49.8022 52.6805L46.9448 67.8092L7.86567 79.8208L5.34075 78.7298L3.91724 74.532Z" fill="#CA2C31"/>
<path d="M23.836 62.0944L5.40308 78.8441L18.9628 85.4525L39.5467 74.9476V69.9913L43.7549 58.6447L23.836 62.0944ZM67.4559 91.5934L58.5511 95.4587L50.1451 113.279C50.1451 113.279 57.5432 129.665 57.8757 129.665C58.2082 129.665 62.4164 129.997 62.4164 129.997L77.3789 113.268L81.1611 84.694L67.4559 91.5934Z" fill="#A02422"/>
<path d="M58.707 104.779C58.707 104.779 63.6634 103.771 67.1962 102.088C70.729 100.405 75.0931 97.8901 75.0931 97.8901L73.4929 111.845L57.855 129.644C57.855 129.644 57.242 128.885 54.6443 123.233C52.5766 118.723 51.8596 117.113 51.8596 117.113L58.707 104.779Z" fill="#CA2C31"/>
<path d="M32.8137 83.8108C32.8137 83.8108 26.8494 83.312 20.3137 91.5726C14.3495 99.1162 11.5544 111.398 10.4738 114.557C9.39319 117.715 6.80593 118.36 7.66835 119.804C8.53077 121.248 12.261 121.165 16.8641 120.594C21.4671 120.022 25.4155 118.578 25.4155 118.578C25.4155 118.578 25.2181 119.077 24.5531 120.157C24.3141 120.542 23.4829 121.092 23.5452 121.664C23.6907 123.025 35.349 123.056 44.659 113.476C54.7171 103.137 49.8335 94.6586 49.8335 94.6586L32.8137 83.8108Z" fill="#F7D74D"/>
<path d="M34.6112 88.6216C34.6112 88.6216 28.1794 88.9645 22.8594 97.2251C17.5394 105.486 15.0664 115.055 15.5755 115.7C16.0743 116.344 25.9869 112.759 28.3664 113.476C29.9977 113.975 29.1561 115.627 29.5925 116.063C29.9562 116.427 34.2579 117.04 41.2196 109.496C48.1917 101.953 46.5396 91.3544 46.5396 91.3544L34.6112 88.6216Z" fill="#FBF0B4"/>
<path d="M37.7698 77.3478C37.7698 77.3478 34.5383 80.226 33.385 81.8782C32.2316 83.5303 32.2316 83.6757 32.3043 84.1745C32.3771 84.6732 33.572 90.1491 38.5491 94.9496C44.6588 100.841 50.1139 101.631 50.9036 101.631C51.6933 101.631 56.9405 95.7392 56.9405 95.7392L37.7698 77.3478Z" fill="#858585"/>
<path d="M52.0571 94.8041C52.0571 94.8041 57.294 98.2433 66.0741 95.2924C78.0753 91.2608 86.8761 82.2418 97.7759 70.8537C108.291 59.8604 117.113 46.2175 117.113 46.2175L110.93 25.509L52.0571 94.8041Z" fill="#437687"/>
<path d="M70.6458 83.4679L72.09 78.9791L75.706 79.4883C75.706 79.4883 78.4595 80.7871 80.4857 81.7326C82.5118 82.6782 85.1199 83.3951 85.1199 83.3951L79.9765 87.7384C79.9765 87.7384 77.1711 86.6786 75.1241 85.785C72.8174 84.7771 70.6458 83.4679 70.6458 83.4679Z" fill="#3F545F"/>
<path d="M87.6137 16.7705C87.6137 16.7705 77.6179 22.5684 63.2892 36.1282C50.3737 48.3476 40.8039 59.4032 38.4868 68.8067C36.5541 76.6828 37.5828 81.4625 41.978 86.6267C46.6227 92.0921 52.0673 94.8041 52.0673 94.8041C52.0673 94.8041 56.1612 94.8664 73.2434 81.7223C94.5546 65.3155 111.626 37.8427 111.626 37.8427L87.6137 16.7705Z" fill="#8DAFBF"/>
<path d="M108.25 43.4744C108.25 43.4744 99.5526 39.7649 93.3494 31.1095C87.1878 22.5165 87.6761 16.7081 87.6761 16.7081C87.6761 16.7081 92.8299 12.6662 104.415 8.04233C112.208 4.93553 122.817 3.34577 126.308 5.93303C129.8 8.5203 123.919 21.4982 123.919 21.4982L113.206 42.2379L108.25 43.4744Z" fill="#D83F22"/>
<path d="M70.8329 83.5406C70.8329 83.5406 63.3205 79.7065 58.5408 74.2514C49.5009 63.9543 47.6306 52.6493 47.6306 52.6493L52.1713 47.3189C52.1713 47.3189 53.3039 59.3305 62.9984 69.7107C69.3159 76.475 75.9139 79.5714 75.9139 79.5714C75.9139 79.5714 74.5943 80.6832 73.1812 81.7638C72.2772 82.46 70.8329 83.5406 70.8329 83.5406Z" fill="#6896A5"/>
<path d="M117.113 46.2175C117.113 46.2175 121.622 40.7832 125.893 28.5327C131.857 11.4505 126.662 6.27594 126.662 6.27594C126.662 6.27594 124.906 14.4014 118.806 25.696C113.912 34.7463 107.99 43.3601 107.99 43.3601C107.99 43.3601 111.252 44.8252 113.019 45.3343C115.242 45.9785 117.113 46.2175 117.113 46.2175Z" fill="#A02422"/>
<path d="M41.365 72.3811C42.7158 73.6695 44.7627 72.3187 46.1031 69.16C47.4539 66.0012 47.4331 64.2348 46.394 63.4867C45.1056 62.5516 42.9444 64.5985 41.9988 66.4169C40.9597 68.4326 40.3467 71.4044 41.365 72.3811ZM88.2683 20.9163C88.2683 20.9163 80.361 26.6 71.9238 34.3306C64.1828 41.4274 59.0498 46.976 58.3433 48.2644C57.5951 49.6464 57.5847 51.5998 58.1666 52.5973C58.7485 53.5948 60.0369 54.1144 61.2111 53.2416C62.3852 52.3584 70.7497 43.1107 78.3036 36.5023C85.2134 30.4549 90.5438 26.6208 90.5438 26.6208C90.5438 26.6208 92.705 22.797 92.3518 21.9242C91.9985 21.041 88.2683 20.9163 88.2683 20.9163Z" fill="#B3E1EE"/>
<path d="M88.2683 20.9163C88.2683 20.9163 94.1078 16.438 100.467 13.2896C106.379 10.3595 112.26 7.91767 113.32 10.0374C114.328 12.0531 107.74 14.7963 101.942 18.4953C96.1444 22.1944 90.5646 26.6104 90.5646 26.6104C90.5646 26.6104 89.7126 25.0518 89.1619 23.6075C88.8132 22.7281 88.5149 21.8296 88.2683 20.9163Z" fill="#ED6A65"/>
<path d="M93.0897 40.7832C87.3021 35.4528 79.2494 36.8867 75.2801 41.6249C71.207 46.5085 71.5084 53.9689 76.3192 58.4577C80.6937 62.5308 88.8295 63.4556 93.7339 57.7407C98.098 52.6701 97.8278 45.1369 93.0897 40.7832Z" fill="#E1E1E1"/>
<path d="M78.2725 43.5056C74.8332 46.8825 75.0203 53.5741 79.1142 56.6289C82.6885 59.2993 87.7592 59.1642 90.9387 55.912C94.1182 52.6597 94.1182 46.7474 91.1361 43.6926C87.7072 40.1909 82.2106 39.6402 78.2725 43.5056Z" fill="#3F545F"/>
<path d="M51.9531 79.8935C51.9531 79.8935 58.3849 73.3682 59.0915 74.0747C59.798 74.7813 59.7045 78.7401 56.6289 83.1458C53.5429 87.5514 46.7578 95.3963 41.3858 100.685C36.0866 105.891 28.6158 111.845 27.9092 111.741C27.3585 111.658 25.1245 110.546 24.2309 109.465C23.3581 108.395 25.9661 103.335 27.0156 101.662C28.0754 99.989 51.9531 79.8935 51.9531 79.8935Z" fill="#A02524"/>
<path d="M22.0593 105.829C21.9762 107.325 24.2622 109.507 24.2622 109.507L59.0915 74.0852C59.0915 74.0852 57.4602 72.246 52.6597 75.2281C47.8177 78.2414 43.5783 81.8573 37.3232 87.9151C28.6054 96.373 22.1425 104.332 22.0593 105.829Z" fill="#CA2C31"/>
<path d="M19.8046 38.3934C18.6512 39.5467 18.5993 41.3963 19.8877 42.4561C21.0307 43.4017 22.8906 42.7886 23.5868 41.9366C24.2829 41.0845 24.1998 39.235 23.275 38.3206C22.3503 37.3959 20.5111 37.6972 19.8046 38.3934Z" fill="white"/>
<path opacity="0.5" d="M42.6224 37.0426C41.7496 38.0089 42.0301 39.4428 42.8406 39.9727C43.6511 40.5027 44.8668 40.4507 45.459 39.7234C45.989 39.0687 46.0513 37.7595 45.2408 36.9491C44.5343 36.2529 43.1835 36.4191 42.6224 37.0426Z" fill="white"/>
<path d="M57.7198 12.3544C57.7198 12.3544 58.9875 8.73851 59.7356 8.69695C60.4941 8.65538 61.5851 12.3129 61.5851 12.3129C61.5851 12.3129 65.3361 12.3544 65.5855 12.9051C65.9076 13.6117 63.1853 15.9808 63.1853 15.9808C63.1853 15.9808 64.0685 19.5136 63.6529 19.9396C63.1853 20.4072 59.9538 18.5473 59.9538 18.5473C59.9538 18.5473 56.6288 20.8644 55.9119 20.2305C55.2884 19.6798 56.5872 15.9392 56.5872 15.9392C56.5872 15.9392 53.4701 13.6637 53.6363 13.0298C53.8753 12.1362 57.7198 12.3544 57.7198 12.3544ZM100.799 99.0538C102.057 99.75 103.636 99.3552 104.218 98.0148C104.748 96.8198 103.771 95.3963 102.888 95.0119C102.005 94.6274 100.456 95.1366 99.8954 96.1444C99.3447 97.1419 100.041 98.6382 100.799 99.0538ZM118.65 68.4119C117.933 67.3001 116.385 66.9364 115.377 67.83C114.401 68.7028 114.64 70.0744 115.19 70.7705C115.741 71.4667 117.217 71.7265 118.11 71.155C119.004 70.5835 119.087 69.0769 118.65 68.4119Z" fill="white"/>
</svg>
