<svg width="89" height="89" viewBox="0 0 89 89" fill="none" xmlns="http://www.w3.org/2000/svg">
<path d="M44.5 17.2437L19.0608 33.5974V56.4927L29.9633 68.122H33.5975V75.3903H37.2316V82.6587H51.7683V75.3903H55.4025V68.122H59.0366L69.9391 56.4927V33.5974L44.5 17.2437Z" fill="#FFFF0D"/>
<path d="M44.5 17.2437V68.122H33.5975V75.3903H55.4025V68.122H59.0367L69.9392 56.1292V33.5974L44.5 17.2437Z" fill="#FFFF0D"/>
<path d="M48.1342 68.122V42.6829H60.8538L59.0367 53.5854H29.9633L28.1463 42.6829H40.8658V68.122M44.5 2.70703V9.97537M84.4758 42.6829H77.2075M78.2978 12.8827L71.7563 19.0608M78.2978 74.6635L71.7563 68.122M4.52417 42.6829H11.7925M11.0657 12.8827L17.2438 19.0608M11.0657 74.6635L17.2438 68.122M44.5 86.2929V82.6587" stroke="black" stroke-miterlimit="10" stroke-linecap="round" stroke-linejoin="round"/>
<path d="M55.4025 68.122V75.3903H33.5975V68.122M44.5 17.2437L69.9391 33.5974V56.4927L59.0366 68.122H29.9633L19.0608 56.4927V33.5974L44.5 17.2437Z" stroke="black" stroke-miterlimit="10" stroke-linecap="round" stroke-linejoin="round"/>
<path d="M51.7684 75.3904V82.6587H37.2317V75.3904" stroke="black" stroke-miterlimit="10" stroke-linecap="round" stroke-linejoin="round"/>
</svg>
