<svg width="92" height="92" viewBox="0 0 92 92" fill="none" xmlns="http://www.w3.org/2000/svg">
<path d="M68.4557 14.1871C68.9474 14.1866 69.4345 14.2832 69.8889 14.4713C70.3433 14.6593 70.7561 14.9353 71.1037 15.2832C71.4512 15.6311 71.7267 16.0442 71.9143 16.4988C72.102 16.9534 72.198 17.4405 72.197 17.9323V81.5541C72.196 82.5461 71.8015 83.4971 71.1001 84.1985C70.3987 84.8999 69.4476 85.2944 68.4557 85.2955H8.579C8.08736 85.296 7.60044 85.1996 7.14608 85.0118C6.69172 84.824 6.27882 84.5485 5.931 84.201C5.58318 83.8535 5.30725 83.4409 5.11899 82.9868C4.93073 82.5326 4.83383 82.0458 4.83383 81.5541V17.9323C4.83333 17.4407 4.92973 16.9537 5.11752 16.4994C5.30532 16.045 5.58082 15.6321 5.92829 15.2843C6.27575 14.9365 6.68837 14.6606 7.14253 14.4723C7.5967 14.284 8.08353 14.1871 8.57517 14.1871H68.4557Z" fill="#FFDDA1"/>
<path d="M55.3572 23.5443C55.3572 24.5365 54.963 25.4881 54.2614 26.1898C53.5597 26.8914 52.6081 27.2856 51.6158 27.2856H25.415C24.9232 27.2866 24.4361 27.1905 23.9815 27.0029C23.5269 26.8153 23.1138 26.5398 22.7659 26.1923C22.418 25.8447 22.142 25.4319 21.954 24.9775C21.7659 24.5231 21.6693 24.036 21.6698 23.5443V14.1909H55.3533L55.3572 23.5443ZM68.4557 85.2954C69.4479 85.2954 70.3996 84.9012 71.1012 84.1996C71.8028 83.498 72.197 82.5463 72.197 81.5541V32.9014H44.1293C43.6377 32.9009 43.1508 32.9973 42.6964 33.1851C42.242 33.3729 41.8292 33.6484 41.4813 33.9959C41.1335 34.3433 40.8576 34.756 40.6693 35.2101C40.4811 35.6643 40.3842 36.1511 40.3842 36.6428V85.2954H68.4557Z" fill="#FFBC44"/>
<path d="M38.5173 85.2955H8.579C7.58731 85.2924 6.63705 84.8974 5.93547 84.1965C5.23388 83.4957 4.83788 82.5458 4.83383 81.5541V17.9323C4.83333 17.4407 4.92973 16.9537 5.11752 16.4994C5.30532 16.045 5.58082 15.6321 5.92829 15.2843C6.27575 14.9365 6.68837 14.6606 7.14253 14.4723C7.5967 14.284 8.08353 14.1871 8.57517 14.1871H23.5443M53.4865 14.1871H68.4557C68.9473 14.1871 69.4341 14.284 69.8883 14.4723C70.3425 14.6606 70.7551 14.9365 71.1025 15.2843C71.45 15.6321 71.7255 16.045 71.9133 16.4994C72.1011 16.9537 72.1975 17.4407 72.197 17.9323V31.0308" stroke="#191919" stroke-linecap="round" stroke-linejoin="round"/>
<path d="M46 10.4458C46.0226 9.44867 45.8457 8.45707 45.4797 7.52925C45.1137 6.60143 44.566 5.7561 43.8687 5.04289C43.1715 4.32969 42.3388 3.76301 41.4195 3.37611C40.5002 2.98922 39.5128 2.78992 38.5154 2.78992C37.518 2.78992 36.5307 2.98922 35.6114 3.37611C34.6921 3.76301 33.8594 4.32969 33.1621 5.04289C32.4649 5.7561 31.9172 6.60143 31.5512 7.52925C31.1852 8.45707 31.0083 9.44867 31.0308 10.4458H23.5443V21.6775H53.4827V10.4458H46Z" fill="#E4F1F5" stroke="#191919" stroke-linecap="round" stroke-linejoin="round"/>
<path d="M87.17 85.2954C87.1705 85.7874 87.074 86.2746 86.886 86.7292C86.6979 87.1839 86.4221 87.5969 86.0742 87.9448C85.7263 88.2927 85.3133 88.5685 84.8587 88.7565C84.404 88.9446 83.9168 89.0411 83.4248 89.0406H49.7413C49.2494 89.0406 48.7622 88.9436 48.3078 88.7551C47.8534 88.5666 47.4406 88.2903 47.0931 87.9421C46.7456 87.5938 46.4702 87.1805 46.2826 86.7257C46.095 86.2709 45.999 85.7836 46 85.2916V42.2586C45.9995 41.767 46.0959 41.28 46.2837 40.8257C46.4715 40.3713 46.747 39.9584 47.0945 39.6106C47.4419 39.2628 47.8545 38.9868 48.3087 38.7986C48.7629 38.6103 49.2497 38.5134 49.7413 38.5134H76.2603C77.257 38.5134 78.2038 38.9083 78.9053 39.6098L86.0737 46.7781C86.7726 47.4811 87.1652 48.4318 87.1662 49.4231L87.17 85.2954Z" fill="white" stroke="#191919" stroke-linecap="round" stroke-linejoin="round"/>
<path d="M57.2278 55.3533H75.9383M57.2278 66.5849H75.9383" stroke="#191919" stroke-linecap="round" stroke-linejoin="round"/>
</svg>
