<svg width="87" height="87" viewBox="0 0 87 87" fill="none" xmlns="http://www.w3.org/2000/svg">
<path d="M75.4072 35.5612C75.4125 29.9584 73.9421 24.4529 71.144 19.5988C68.346 14.7446 64.3189 10.713 59.468 7.90933C54.6171 5.1057 49.1133 3.62901 43.5105 3.62781C37.9076 3.62661 32.4033 5.10094 27.5511 7.90248C22.699 10.704 18.6702 14.734 15.8701 19.5869C13.0699 24.4399 11.5972 29.9447 11.6 35.5475C11.6028 41.1504 13.0811 46.6537 15.8862 51.5038C18.6912 56.3539 22.724 60.3798 27.579 63.1764C33.5602 66.6274 35.1734 70.4409 41.9594 82.4723C42.1129 82.7471 42.3369 82.9759 42.6084 83.1352C42.8799 83.2944 43.1889 83.3784 43.5036 83.3784C43.8184 83.3784 44.1274 83.2944 44.3988 83.1352C44.6703 82.9759 44.8943 82.7471 45.0479 82.4723C51.9027 70.3068 53.4579 66.6202 59.4246 63.1764C64.2834 60.3874 68.32 56.3651 71.1263 51.5163C73.9327 46.6674 75.4094 41.1636 75.4072 35.5612Z" fill="#E3E3E3"/>
<path d="M43.5 3.6576C36.4749 3.65186 29.6447 5.96657 24.0705 10.2421C18.4963 14.5176 14.4903 20.5144 12.6749 27.3009C10.8596 34.0873 11.3366 41.2834 14.0317 47.7709C16.7269 54.2584 21.4893 59.6741 27.579 63.1765C33.5603 66.6275 35.1734 70.441 41.9594 82.4724C42.1139 82.746 42.3383 82.9737 42.6096 83.1322C42.8809 83.2908 43.1894 83.3746 43.5036 83.375L43.5 3.6576Z" fill="white"/>
<path d="M75.4072 35.5612C75.4125 29.9584 73.9421 24.4529 71.144 19.5988C68.346 14.7446 64.3189 10.713 59.468 7.90933C54.6171 5.1057 49.1133 3.62901 43.5105 3.62781C37.9076 3.62661 32.4033 5.10094 27.5511 7.90248C22.699 10.704 18.6702 14.734 15.8701 19.5869C13.0699 24.4399 11.5972 29.9447 11.6 35.5475C11.6028 41.1504 13.0811 46.6537 15.8862 51.5038C18.6912 56.3539 22.724 60.3798 27.579 63.1765C33.5602 66.6275 35.1734 70.441 41.9594 82.4723C42.1129 82.7471 42.3369 82.9759 42.6084 83.1352C42.8799 83.2944 43.1889 83.3784 43.5036 83.3784C43.8184 83.3784 44.1274 83.2944 44.3988 83.1352C44.6703 82.9759 44.8943 82.7471 45.0479 82.4723C51.9027 70.3068 53.4579 66.6202 59.4246 63.1765C64.2834 60.3874 68.32 56.3651 71.1263 51.5163C73.9327 46.6674 75.4094 41.1636 75.4072 35.5612Z" stroke="#191919" stroke-linecap="round" stroke-linejoin="round"/>
<path d="M43.5 53.2875C48.2013 53.2875 52.71 51.4199 56.0343 48.0956C59.3587 44.7712 61.2262 40.2625 61.2262 35.5612C61.2262 30.8599 59.3587 26.3512 56.0343 23.0269C52.71 19.7025 48.2013 17.835 43.5 17.835C38.7987 17.835 34.29 19.7025 30.9656 23.0269C27.6413 26.3512 25.7737 30.8599 25.7737 35.5612C25.7737 40.2625 27.6413 44.7712 30.9656 48.0956C34.29 51.4199 38.7987 53.2875 43.5 53.2875Z" fill="#78EB7B"/>
<path d="M30.9684 48.0964C27.6504 44.7706 25.7884 40.2637 25.7914 35.5658C25.7943 30.8679 27.662 26.3634 30.9842 23.0417C34.3063 19.72 38.8111 17.853 43.509 17.8507C48.2069 17.8484 52.7135 19.7111 56.0389 23.0295L30.9684 48.0964Z" fill="#C9F7CA"/>
<path d="M43.5 53.2875C48.2013 53.2875 52.71 51.4199 56.0343 48.0956C59.3587 44.7712 61.2262 40.2625 61.2262 35.5612C61.2262 30.8599 59.3587 26.3512 56.0343 23.0269C52.71 19.7025 48.2013 17.835 43.5 17.835C38.7987 17.835 34.29 19.7025 30.9656 23.0269C27.6413 26.3512 25.7737 30.8599 25.7737 35.5612C25.7737 40.2625 27.6413 44.7712 30.9656 48.0956C34.29 51.4199 38.7987 53.2875 43.5 53.2875Z" stroke="#191919" stroke-linecap="round" stroke-linejoin="round"/>
<path d="M36.4095 37.3338L40.252 41.1727C40.4338 41.3547 40.6532 41.495 40.8948 41.5836C41.1364 41.6721 41.3944 41.7069 41.6509 41.6855C41.9073 41.6642 42.156 41.5871 42.3796 41.4597C42.6032 41.3323 42.7963 41.1576 42.9454 40.9479L50.5941 30.2433" stroke="#191919" stroke-linecap="round" stroke-linejoin="round"/>
</svg>
