<svg width="65" height="65" viewBox="0 0 65 65" fill="none" xmlns="http://www.w3.org/2000/svg">
<path d="M57.8879 9.6498H7.11207C6.77836 9.64945 6.44786 9.71491 6.13948 9.84246C5.8311 9.97 5.5509 10.1571 5.31493 10.3931C5.07896 10.629 4.89185 10.9092 4.76431 11.2176C4.63677 11.526 4.5713 11.8565 4.57166 12.1902V57.8879C4.57166 59.2908 5.70916 60.4256 7.11207 60.4256H57.8879C59.2881 60.4256 60.4256 59.2881 60.4256 57.8879V12.1875C60.426 11.854 60.3606 11.5237 60.2332 11.2155C60.1058 10.9073 59.919 10.6273 59.6833 10.3913C59.4476 10.1554 59.1677 9.96823 58.8597 9.84053C58.5516 9.71282 58.2214 9.6498 57.8879 9.6498Z" fill="#E3E3E3"/>
<path d="M60.4256 19.8033H4.57166V12.1875C4.57166 10.7846 5.70916 9.64978 7.11207 9.64978H57.8879C59.2881 9.64978 60.4256 10.7873 60.4256 12.1875V19.8033Z" fill="white"/>
<path d="M12.1902 4.57434V12.1875M22.3437 4.57434V12.1875M32.5 4.57434V12.1875M42.6562 4.57434V12.1875M52.8098 4.57434V12.1875M57.8879 9.64976H7.11207C6.77836 9.6494 6.44786 9.71487 6.13948 9.84241C5.8311 9.96995 5.5509 10.1571 5.31493 10.393C5.07896 10.629 4.89185 10.9092 4.76431 11.2176C4.63677 11.526 4.5713 11.8565 4.57166 12.1902V57.8879C4.57166 59.2908 5.70916 60.4256 7.11207 60.4256H57.8879C59.2881 60.4256 60.4256 59.2881 60.4256 57.8879V12.1875C60.426 11.854 60.3606 11.5237 60.2332 11.2155C60.1058 10.9073 59.919 10.6272 59.6833 10.3913C59.4476 10.1553 59.1677 9.96818 58.8597 9.84048C58.5516 9.71278 58.2214 9.64976 57.8879 9.64976Z" stroke="#191919" stroke-linecap="round" stroke-linejoin="round"/>
<path d="M35.0377 22.3437H42.6562V32.4999H32.5V24.8787C32.5 23.4758 33.6375 22.3383 35.0377 22.3383" fill="#78EB7B"/>
<path d="M35.0377 22.3437H42.6562V32.4999H32.5V24.8787C32.5 23.4758 33.6375 22.3383 35.0377 22.3383" stroke="#191919" stroke-linecap="round" stroke-linejoin="round"/>
<path d="M42.6562 22.3438H50.272C51.6723 22.3438 52.8098 23.4813 52.8098 24.8815V32.4973H42.6535L42.6562 22.3438Z" fill="#FF808C" stroke="#191919" stroke-linecap="round" stroke-linejoin="round"/>
<path d="M42.6562 32.5H32.5V42.6562H42.6562V32.5Z" fill="#78EB7B" stroke="#191919" stroke-linecap="round" stroke-linejoin="round"/>
<path d="M52.8125 32.5H42.6562V42.6562H52.8125V32.5Z" fill="#FF808C" stroke="#191919" stroke-linecap="round" stroke-linejoin="round"/>
<path d="M42.6562 42.6562H32.5V52.8125H42.6562V42.6562Z" fill="#78EB7B" stroke="#191919" stroke-linecap="round" stroke-linejoin="round"/>
<path d="M42.6562 42.6536H52.8125V50.2694C52.8125 51.6723 51.675 52.8071 50.272 52.8071H42.6535L42.6562 42.6536Z" fill="#FF808C" stroke="#191919" stroke-linecap="round" stroke-linejoin="round"/>
<path d="M14.7279 32.5H22.3465V42.6536H12.1875V35.035C12.1875 33.6348 13.325 32.4973 14.7252 32.4973" fill="#78EB7B"/>
<path d="M14.7279 32.5H22.3465V42.6536H12.1875V35.035C12.1875 33.6348 13.325 32.4973 14.7252 32.4973" stroke="#191919" stroke-linecap="round" stroke-linejoin="round"/>
<path d="M32.5 32.5H22.3438V42.6562H32.5V32.5Z" fill="#78EB7B" stroke="#191919" stroke-linecap="round" stroke-linejoin="round"/>
<path d="M12.1902 42.6536H22.3464V52.8098H14.7279C14.3944 52.8098 14.0642 52.7441 13.7561 52.6164C13.4481 52.4887 13.1682 52.3015 12.9325 52.0656C12.6968 51.8296 12.51 51.5496 12.3826 51.2414C12.2552 50.9332 12.1898 50.6029 12.1902 50.2694V42.6536Z" fill="#78EB7B" stroke="#191919" stroke-linecap="round" stroke-linejoin="round"/>
<path d="M32.5 42.6562H22.3438V52.8125H32.5V42.6562Z" fill="#78EB7B" stroke="#191919" stroke-linecap="round" stroke-linejoin="round"/>
</svg>
